PathFileType	4	(X/Y/Z)	C:/Users/opensim2020/Desktop/walking_exp_matlab/subject06_walking19_straight_02.trc																																																																																																																																																	
DataRate	CameraRate	NumFrames	NumMarkers	Units	OrigDataRate	OrigDataStartFrame	OrigNumFrames																																																																																																																																													
100	100	7	49	mm	100	2400	332																																																																																																																																													
Frame#	Time	LFHD			RFHD			LBHD			RBHD			C7			T10			CLAV			STRN			RBAK			LSHO			LUPA			LELB			LFRM			LWRA			LWRB			LFIN			RSHO			RUPA			RELB			RFRM			RWRA			RWRB			RFIN			LASI			RASI			LPSI			RPSI			LTHI			LKNE			LTIB			LANK			LHEE			LTOE			RTHI			RKNE			RTIB			RANK			RHEE			RTOE			*39			*40			*41			*42			*43			*44			*45			*46			*47			*48		
		X1	Y1	Z1	X2	Y2	Z2	X3	Y3	Z3	X4	Y4	Z4	X5	Y5	Z5	X6	Y6	Z6	X7	Y7	Z7	X8	Y8	Z8	X9	Y9	Z9	X10	Y10	Z10	X11	Y11	Z11	X12	Y12	Z12	X13	Y13	Z13	X14	Y14	Z14	X15	Y15	Z15	X16	Y16	Z16	X17	Y17	Z17	X18	Y18	Z18	X19	Y19	Z19	X20	Y20	Z20	X21	Y21	Z21	X22	Y22	Z22	X23	Y23	Z23	X24	Y24	Z24	X25	Y25	Z25	X26	Y26	Z26	X27	Y27	Z27	X28	Y28	Z28	X29	Y29	Z29	X30	Y30	Z30	X31	Y31	Z31	X32	Y32	Z32	X33	Y33	Z33	X34	Y34	Z34	X35	Y35	Z35	X36	Y36	Z36	X37	Y37	Z37	X38	Y38	Z38	X39	Y39	Z39	X40	Y40	Z40	X41	Y41	Z41	X42	Y42	Z42	X43	Y43	Z43	X44	Y44	Z44	X45	Y45	Z45	X46	Y46	Z46	X47	Y47	Z47	X48	Y48	Z48	X49	Y49	Z49
																																																																																																																																																				
208	2.07	-49.04837	1666.46924	950.86426	-36.48686	1654.26001	1081.88696	-173.76724	1595.26196	960.57507	-160.03992	1588.58301	1089.42664	-155.47411	1445.65356	1005.8089	-178.40826	1117.11646	1005.59424	-41.10113	1374.72314	1003.42053	4.5491	1200.7804	987.97113	-218.7896	1270.66406	1079.10046	-92.26344	1411.34192	843.47363	-54.4128	1213.83411	767.03064	-26.46806	1103.95313	753.83691	68.18274	985.98041	746.99951	172.89723	924.72601	806.18439	129.96904	885.0824	766.25189	207.63341	840.32043	777.09387	-85.13261	1396.63123	1166.26465	-125.79175	1197.30505	1248.08728	-122.05404	1075.19043	1257.65295	-121.38714	954.81201	1275.23438	-82.78336	807.55847	1245.24207	-136.50742	817.45996	1287.11658	-111.84003	736.08813	1289.021	-8.24822	955.08386	886.89124	12.19381	969.55981	1106.02979	-161.24321	987.15259	927.72253	-141.26056	993.93365	1094.57813	-119.82306	641.24878	846.89917	-146.73355	478.75986	870.13354	-301.59818	271.6423	887.7522	-389.28513	125.00776	936.46808	-428.79825	131.30321	983.88043	-275.76132	34.08271	936.66125	-0.00285	638.94373	1173.06421	24.88253	518.05688	1141.69763	28.35425	251.90775	1146.30432	47.49463	65.96242	1100.7605	11.38126	39.56008	1056.07019	203.21082	43.04142	1089.52039	-147.94852	1690.89795	1019.2948	NaN	NaN	NaN	NaN	NaN	NaN	NaN	NaN	NaN	NaN	NaN	NaN	NaN	NaN	NaN	NaN	NaN	NaN	NaN	NaN	NaN	NaN	NaN	NaN	NaN	NaN	NaN
209	2.08	-42.65483	1667.66602	952.7016	-30.01089	1655.1991	1083.72327	-167.4337	1596.31787	962.49304	-153.593	1589.3158	1091.54675	-148.70827	1446.53015	1007.27563	-171.21266	1118.02332	1007.02197	-34.23309	1375.87976	1004.89941	11.82335	1201.95642	989.39679	-211.59377	1271.52014	1080.66968	-85.31884	1412.74634	845.16693	-47.18724	1215.46008	768.31329	-20.40835	1105.28613	755.13989	73.51991	986.73425	747.67792	177.89128	924.53741	806.71606	134.72462	885.58716	766.1958	212.21494	840.00244	777.1886	-78.37789	1397.76746	1167.66199	-117.92839	1198.29932	1249.49524	-113.61403	1076.14001	1258.82727	-112.18448	955.73517	1276.26001	-72.83623	808.64313	1245.99426	-126.22465	818.23956	1287.81787	-101.00786	737.09851	1289.77039	-1.34028	956.17963	888.30701	19.42181	970.1156	1107.15137	-154.18935	987.98145	929.27563	-134.03148	994.96362	1096.05786	-110.92396	641.70038	847.28259	-136.26488	478.85452	870.0694	-294.51709	274.97589	888.72546	-384.92804	129.84848	937.24689	-423.71268	137.45232	985.10309	-275.01965	34.42343	936.95886	2.62342	638.35443	1173.30261	28.71049	518.08728	1142.83118	29.63952	251.9128	1146.48462	47.89902	65.99284	1100.8772	11.57251	39.70509	1055.97888	203.5762	42.12798	1089.30286	-141.58528	1691.88208	1021.33643	NaN	NaN	NaN	NaN	NaN	NaN	NaN	NaN	NaN	NaN	NaN	NaN	NaN	NaN	NaN	NaN	NaN	NaN	NaN	NaN	NaN	NaN	NaN	NaN	NaN	NaN	NaN
210	2.09	-36.4353	1668.68835	954.49493	-23.52252	1656.08264	1085.44714	-161.00264	1597.1438	964.31866	-146.77127	1590.06323	1092.99585	-141.87872	1447.23804	1008.76917	-164.16112	1118.84363	1008.56165	-27.4539	1376.87	1006.37738	19.00872	1202.99438	990.80743	-204.47888	1272.21423	1082.23816	-78.34575	1413.94934	846.76501	-40.03304	1216.90503	769.60175	-14.27411	1106.46973	756.35596	78.86781	987.26404	748.28589	182.69626	923.98572	807.21442	139.70148	885.74207	766.62634	216.74512	839.48322	777.30487	-71.56232	1398.80554	1169.06152	-110.08435	1199.16064	1250.98718	-105.24919	1076.95325	1260.05322	-102.91718	956.55829	1277.302	-62.73856	809.78204	1246.81055	-115.87753	818.88324	1288.53247	-89.97155	738.02966	1290.54138	5.46648	957.21979	889.6734	26.42056	970.59491	1108.34314	-147.3262	988.79529	930.77094	-127.58508	996.2085	1097.73987	-101.97053	642.17834	847.5517	-125.60676	478.961	869.7735	-287.37097	278.29526	889.42987	-379.96796	134.78944	938.11194	-417.98666	143.59282	986.46088	-274.36981	34.5514	937.55188	7.94997	638.91357	1174.49512	32.53259	517.97522	1143.9895	31.17054	251.79048	1146.76758	48.28597	65.85411	1100.53528	11.78051	39.85246	1055.89893	203.94746	41.23116	1089.1897	-135.21498	1692.68225	1023.23901	NaN	NaN	NaN	NaN	NaN	NaN	NaN	NaN	NaN	NaN	NaN	NaN	NaN	NaN	NaN	NaN	NaN	NaN	NaN	NaN	NaN	NaN	NaN	NaN	NaN	NaN	NaN
211	2.1	-30.09219	1669.6792	956.16193	-17.20795	1656.92896	1087.12512	-154.57245	1597.8479	965.92487	-140.53175	1590.68713	1094.96729	-135.15138	1447.88513	1010.18304	-157.41046	1119.63586	1010.22296	-20.50641	1377.75122	1007.80585	26.11065	1203.84973	992.24579	-197.36159	1272.7522	1083.83386	-71.41044	1414.90771	848.29614	-33.02543	1218.0625	770.90582	-7.93191	1107.69275	757.32446	84.19797	987.69	748.94653	187.59624	923.39661	807.69055	144.38885	885.76929	766.66113	221.13609	838.79797	777.396	-64.82346	1399.68982	1170.44446	-102.82964	1199.97107	1252.51099	-96.88923	1077.6665	1261.35205	-93.60791	957.27789	1278.37292	-52.18755	810.90552	1247.69324	-105.45444	819.47308	1289.24292	-78.92791	738.86761	1291.39221	12.22786	958.19403	891.09808	33.38995	971.09814	1109.57959	-140.68878	989.49805	932.21545	-120.6535	996.93976	1099.12146	-93.08165	642.60608	847.7312	-114.79048	479.06699	869.22101	-279.77112	281.52289	890.05469	-374.50989	139.77713	939.08618	-411.4494	149.70093	987.97058	-273.1832	34.98361	937.97485	13.1297	639.17834	1175.42249	36.31115	517.89856	1145.13782	32.95982	251.60683	1147.26672	48.72255	65.77618	1100.43506	12.01034	40.00946	1055.80908	204.29778	40.40549	1089.14429	-128.94502	1693.36523	1024.98865	NaN	NaN	NaN	NaN	NaN	NaN	NaN	NaN	NaN	NaN	NaN	NaN	NaN	NaN	NaN	NaN	NaN	NaN	NaN	NaN	NaN	NaN	NaN	NaN	NaN	NaN	NaN
212	2.11	-23.90363	1670.42395	957.75488	-10.96491	1657.71826	1088.73779	-148.15283	1598.38293	967.48114	-133.96413	1591.20313	1096.25903	-128.39377	1448.50598	1011.68396	-150.32504	1120.10852	1011.63574	-13.65165	1378.51831	1009.24902	33.0681	1204.57654	993.68372	-190.45833	1273.19971	1085.46167	-64.48397	1415.66187	849.78674	-26.24936	1218.95386	772.19965	-2.10748	1108.49915	758.65552	89.44646	987.97095	749.50427	192.39183	922.58722	808.11316	149.0258	885.48077	766.51868	225.39902	837.91467	777.46912	-58.01185	1400.45081	1171.8562	-95.09473	1200.44019	1253.6814	-88.59755	1078.24768	1262.67993	-84.27806	957.8606	1279.47986	-41.31044	812.10632	1248.56323	-94.94521	819.95758	1290.03088	-67.51711	739.54907	1291.89526	18.71979	959.10114	892.50964	40.29359	971.59387	1110.76721	-134.10223	989.98975	933.59564	-113.95808	997.57391	1100.42651	-84.31699	642.95081	847.84692	-103.78786	479.11688	868.55548	-271.74457	284.70996	890.37323	-368.59827	144.7381	940.00116	-404.32996	155.71367	989.42761	-271.79501	35.51408	938.38586	18.03134	639.48401	1176.15454	40.05549	517.84595	1146.31836	34.80046	251.44893	1147.71472	49.18119	65.68861	1100.37842	12.19704	40.16288	1055.80298	204.66016	39.63764	1089.11792	-122.8019	1693.92664	1026.55835	NaN	NaN	NaN	NaN	NaN	NaN	NaN	NaN	NaN	NaN	NaN	NaN	NaN	NaN	NaN	NaN	NaN	NaN	NaN	NaN	NaN	NaN	NaN	NaN	NaN	NaN	NaN
213	2.12	-17.69539	1671.10815	959.27734	-4.78254	1658.41406	1090.21667	-141.83519	1598.76416	968.90009	-127.5489	1591.51953	1097.58484	-121.79955	1449.07715	1013.13074	-143.56407	1120.62817	1013.18994	-6.87736	1379.1228	1010.69238	39.90586	1205.20142	995.078	-183.60516	1273.51831	1087.18237	-57.64357	1416.22961	851.24438	-19.80065	1219.55176	773.51129	4.16902	1108.93457	759.6944	94.66749	987.92157	750.13605	197.05293	921.5564	808.55963	153.50682	885.13904	766.8407	229.64174	836.91229	777.46301	-51.23125	1401.09619	1173.28955	-87.62584	1200.81677	1254.94617	-80.19175	1078.6803	1264.01233	-74.85812	958.33472	1280.60376	-30.40165	813.22705	1249.49048	-84.38017	820.28308	1290.76392	-56.22337	740.21039	1292.70935	25.19056	959.97791	893.80164	46.9811	972.00067	1112.03857	-127.79808	990.41901	934.77454	-107.45168	998.0658	1101.60461	-75.43305	643.14301	847.95776	-92.6338	479.11969	867.82654	-263.26816	287.77716	890.82343	-362.27689	149.53926	940.90363	-396.73981	161.67758	990.79132	-270.24771	36.19923	938.80823	23.14903	639.76239	1176.88293	43.8918	517.80188	1147.38196	36.8143	251.33614	1148.29785	49.64779	65.61588	1100.37866	12.38499	40.27097	1055.81726	204.93414	38.89649	1089.1842	-116.67136	1694.3728	1028.05774	NaN	NaN	NaN	NaN	NaN	NaN	NaN	NaN	NaN	NaN	NaN	NaN	NaN	NaN	NaN	NaN	NaN	NaN	NaN	NaN	NaN	NaN	NaN	NaN	NaN	NaN	NaN
214	2.13	-11.45645	1671.68396	960.69714	1.37606	1658.99341	1091.64099	-135.24887	1598.99744	970.3985	-121.21991	1591.81824	1098.9386	-114.95135	1449.547	1014.52179	-137.13797	1121.11292	1014.60529	-0.19128	1379.59937	1012.04816	46.48544	1205.58374	996.47925	-176.7702	1273.83936	1088.79736	-50.90477	1416.56335	852.60883	-13.57082	1219.82153	774.77136	10.07561	1109.48462	760.40375	99.77559	987.62085	750.76984	201.34517	920.22772	809.17914	158.01617	884.39911	766.49249	233.73708	835.72137	777.40753	-44.4133	1401.60815	1174.68359	-79.7645	1201.14661	1256.51025	-71.8177	1079.01099	1265.3623	-65.37997	958.67828	1281.74231	-20.57896	813.5705	1250.53442	-73.72175	820.51788	1291.56445	-44.64703	740.71405	1293.177	31.5475	960.60577	895.03589	53.31973	972.10638	1113.32434	-121.43221	990.64258	935.88812	-101.09132	998.47717	1102.68018	-66.47918	643.29205	848.01489	-81.3341	478.99774	867.12616	-254.52351	290.88309	891.27899	-355.34213	154.18233	941.5788	-388.77646	167.47801	991.92395	-268.23065	37.14396	939.14343	28.04992	640.00885	1177.62732	47.69268	517.7027	1148.40942	38.83141	251.23705	1148.98584	49.96511	65.46819	1100.4187	12.54217	40.42549	1055.9248	205.20901	38.25633	1089.09497	-110.59396	1694.69092	1029.38171	NaN	NaN	NaN	NaN	NaN	NaN	NaN	NaN	NaN	NaN	NaN	NaN	NaN	NaN	NaN	NaN	NaN	NaN	NaN	NaN	NaN	NaN	NaN	NaN	NaN	NaN	NaN
